<svg width="91" height="46" viewBox="0 0 91 46" fill="none" xmlns="http://www.w3.org/2000/svg">
<g clip-path="url(#clip0_3002_1150)">
<path fill-rule="evenodd" clip-rule="evenodd" d="M0 44.4815H1.12132V38.5858H0V44.4815ZM86.0659 40.5741H86.8304V42.3431H87.3628V40.5741H88.1273V40.1085H86.0645V40.5741H86.0659ZM89.3095 40.1085H88.5096V42.3431H89.0037V40.6944L89.5644 42.3431H89.9197L90.4832 40.6774V42.3431H91V40.1085H90.2312L89.7711 41.4714L89.3081 40.1085H89.3095ZM4.41592 42.8371C4.89022 42.8951 5.03888 43.0536 5.03888 43.3112C5.03888 43.5772 4.76421 43.7753 4.17523 43.7753C3.46025 43.7753 3.20257 43.4017 3.16151 43.3012H2.0232C2.10673 43.6918 2.61359 44.5976 4.17523 44.5976C5.46221 44.5976 6.11915 44.0584 6.11915 43.2687C6.11915 42.4394 5.65476 42.0063 4.51645 41.9073L3.80146 41.8323C3.37813 41.7742 3.20399 41.6242 3.20399 41.3921C3.20399 41.1346 3.47016 40.969 3.97702 40.969C4.60847 40.969 4.84916 41.2605 4.9242 41.3511H6.04552C5.92943 40.9435 5.4976 40.1637 3.98552 40.1637C2.8557 40.1637 2.13222 40.6619 2.13222 41.4501C2.13222 42.2639 2.75517 42.6955 3.67687 42.762C3.96853 42.7946 4.11719 42.8116 4.41592 42.8371ZM7.99935 42.2384C7.99935 41.5832 8.41418 41.1346 9.05413 41.1346C9.68558 41.1346 10.0763 41.5747 10.0763 42.2384V44.4801H11.1481V42.0304C11.1481 40.9591 10.4501 40.1878 9.39534 40.1878C8.6308 40.1878 8.15792 40.6859 7.99935 40.9845V38.3692H6.94457V44.4801H7.99935V42.2384ZM14.2091 40.1708C12.9136 40.1708 11.941 41.1006 11.941 42.3799C11.941 43.6579 12.9136 44.5891 14.2091 44.5891C15.489 44.5891 16.4687 43.6593 16.4687 42.3799C16.4687 41.1006 15.489 40.1708 14.2091 40.1708ZM14.2091 43.6423C13.5026 43.6423 13.0127 43.0776 13.0127 42.3799C13.0127 41.6822 13.5026 41.1176 14.2091 41.1176C14.9156 41.1176 15.397 41.6653 15.397 42.3799C15.397 43.0946 14.9156 43.6423 14.2091 43.6423ZM18.3744 42.2384C18.3744 41.5832 18.7893 41.1346 19.4292 41.1346C20.0607 41.1346 20.4514 41.5747 20.4514 42.2384V44.4801H21.5232V42.0304C21.5232 40.9591 20.8252 40.1878 19.7704 40.1878C19.0059 40.1878 18.5316 40.6859 18.3744 40.9845V40.2783H17.3196V44.4801H18.3744V42.2384ZM26.5437 41.6653C26.4771 41.2081 25.9703 40.1708 24.4752 40.1708C23.2533 40.1708 22.3146 41.0836 22.3146 42.3799C22.3146 43.6749 23.2618 44.5891 24.4822 44.5891C25.9858 44.5891 26.5012 43.5348 26.5423 43.0946H25.5045C25.4294 43.2107 25.1972 43.6508 24.4992 43.6508C23.8352 43.6508 23.3949 43.0861 23.3949 42.3799C23.3949 41.6737 23.8437 41.1091 24.4922 41.1091C25.1647 41.1091 25.4223 41.5577 25.4889 41.6653H26.5437ZM28.3998 42.2384C28.3998 41.5832 28.8161 41.1346 29.4546 41.1346C30.086 41.1346 30.4768 41.5747 30.4768 42.2384V44.4801H31.5486V42.0304C31.5486 40.9591 30.8506 40.1878 29.7958 40.1878C29.0313 40.1878 28.557 40.6859 28.3998 40.9845V38.3692H27.345V44.4801H28.3998V42.2384ZM32.6402 44.4801H33.7034V38.3692H32.6402V44.4801ZM34.829 39.6061H35.9333V38.3438H34.829V39.6061ZM34.8545 44.4801H35.9178V40.2783H34.8545V44.4801ZM59.8563 44.4801H60.9111V40.2783H59.8479V40.9095C59.7558 40.7355 59.3325 40.1878 58.4448 40.1878C57.3574 40.1878 56.4598 41.0185 56.4598 42.3799C56.4598 43.7499 57.3574 44.5721 58.4363 44.5721C59.3665 44.5721 59.7742 43.982 59.8563 43.8164V44.4801ZM59.8648 42.3799C59.8648 43.0946 59.4075 43.6423 58.718 43.6423C58.0045 43.6423 57.5387 43.0946 57.5387 42.3799C57.5387 41.6653 58.0045 41.1176 58.718 41.1176C59.4075 41.1176 59.8648 41.6653 59.8648 42.3799ZM63.0915 42.2653C63.0915 41.5987 63.4157 41.3001 64.3133 41.3001H65.4347V40.2458H64.4549C63.5247 40.2458 63.2005 40.7355 63.0929 40.976V40.2699H62.0381V44.4801H63.0929V42.2653H63.0915ZM69.2177 44.4801H70.2725V40.2783H69.2092V40.9095C69.1172 40.7355 68.6939 40.1878 67.8061 40.1878C66.7174 40.1878 65.8198 41.0185 65.8198 42.3799C65.8198 43.7499 66.7174 44.5721 67.7962 44.5721C68.7264 44.5721 69.1342 43.982 69.2163 43.8164V44.4801H69.2177ZM69.2262 42.3799C69.2262 43.0946 68.7689 43.6423 68.0794 43.6423C67.3644 43.6423 66.9 43.0946 66.9 42.3799C66.9 41.6653 67.3658 41.1176 68.0794 41.1176C68.7689 41.1176 69.2262 41.6653 69.2262 42.3799ZM74.4548 44.4801H75.8749L73.5232 42.2384L75.7588 40.2783H74.3713L72.4444 41.9893V38.3692H71.3981V44.4801H72.4444V42.5696L74.4548 44.4801ZM79.3181 44.4801H80.3729V40.2783H79.3096V40.9095C79.2176 40.7355 78.7943 40.1878 77.9066 40.1878C76.8178 40.1878 75.9216 41.0185 75.9216 42.3799C75.9216 43.7499 76.8192 44.5721 77.8981 44.5721C78.8283 44.5721 79.236 43.982 79.3181 43.8164V44.4801ZM79.3266 42.3799C79.3266 43.0946 78.8693 43.6423 78.1798 43.6423C77.4648 43.6423 77.0004 43.0946 77.0004 42.3799C77.0004 41.6653 77.4662 41.1176 78.1798 41.1176C78.8693 41.1176 79.3266 41.6653 79.3266 42.3799ZM81.5155 44.4801H82.5787V38.3692H81.5155V44.4801ZM83.7043 39.6061H84.8086V38.3438H83.7043V39.6061ZM83.7284 44.4801H84.7917V40.2783H83.7284V44.4801ZM43.372 40.2783H42.2847L41.0473 43.2177L39.8098 40.2783H38.6135L40.5248 44.5381H41.5216L43.3735 40.2783H43.372ZM47.056 44.4801H48.1108V40.2783H47.0475V40.9095C46.9555 40.7355 46.5321 40.1878 45.6444 40.1878C44.5571 40.1878 43.6594 41.0185 43.6594 42.3799C43.6594 43.7499 44.5571 44.5721 45.6359 44.5721C46.5661 44.5721 46.9739 43.982 47.056 43.8164V44.4801ZM47.0645 42.3799C47.0645 43.0946 46.6072 43.6423 45.9177 43.6423C45.2027 43.6423 44.7383 43.0946 44.7383 42.3799C44.7383 41.6653 45.2041 41.1176 45.9177 41.1176C46.6072 41.1176 47.0645 41.6653 47.0645 42.3799ZM52.4177 43.8419C52.4998 44.0074 52.9656 44.5721 53.8717 44.5721C54.976 44.5721 55.8737 43.7499 55.8737 42.3799C55.8737 41.01 54.976 40.1878 53.8717 40.1878C52.95 40.1878 52.5182 40.785 52.4262 40.9435V38.3692H51.3799V44.4801H52.4191V43.8404L52.4177 43.8419ZM52.4092 42.3799C52.4092 41.6582 52.8835 41.1176 53.6055 41.1176C54.3276 41.1176 54.7934 41.6568 54.7934 42.3799C54.7934 43.0946 54.3276 43.6423 53.6055 43.6423C52.8835 43.6423 52.4092 43.0946 52.4092 42.3799Z" fill="white"/>
<path fill-rule="evenodd" clip-rule="evenodd" d="M20.2027 27.3839V19.8634C20.2027 15.7381 16.8076 12.343 12.6791 12.343C8.55195 12.343 5.15825 15.7395 5.15825 19.8634C5.15825 23.9902 8.55054 27.3839 12.6791 27.3839H20.2027ZM54.2742 25.6007C53.3667 23.8289 52.891 21.8674 52.891 19.8634C52.891 12.8907 58.5953 7.18738 65.571 7.18738C73.3707 7.18738 79.3624 14.2451 78.0811 21.9382L77.9962 22.4434H58.5104C59.5906 25.3715 62.4152 27.3839 65.571 27.3839H79.6343V0.25H84.7921V32.5409H65.5073C63.2278 32.5409 61.0192 31.9098 59.0838 30.7464C58.9181 30.6389 58.7539 30.5285 58.5939 30.4153C56.5296 31.7909 54.0746 32.5409 51.5884 32.5409H51.5007C44.5306 32.5409 38.8405 26.8263 38.8405 19.8649V12.3685C34.9795 12.6812 31.927 15.9575 31.927 19.8649V32.5409H26.7678V19.8649C26.7678 13.1115 32.1281 7.52137 38.8405 7.20295V0.251415H44.0011V7.18879H50.8338V12.3444H44.0011V19.8649C44.0011 23.993 47.3948 27.3853 51.5247 27.3853C52.6814 27.3853 53.8452 27.1178 54.8873 26.6098C54.6693 26.2829 54.4654 25.9475 54.2757 25.6036L54.2742 25.6007ZM72.6345 17.2863C71.5542 14.3554 68.7297 12.343 65.571 12.343C62.4137 12.343 59.5892 14.3569 58.5104 17.2863H72.6345ZM25.3605 32.5395H12.655C5.68493 32.5395 -0.000976562 26.8235 -0.000976562 19.8634C-0.000976562 12.8907 5.70192 7.18738 12.6791 7.18738C19.6548 7.18738 25.3605 12.8907 25.3605 19.8634V32.5395Z" fill="white"/>
</g>
<defs>
<clipPath id="clip0_3002_1150">
<rect width="91" height="45.5" fill="white" transform="translate(0 0.25)"/>
</clipPath>
</defs>
</svg>
