<svg width="140" height="70" viewBox="0 0 140 70" fill="none" xmlns="http://www.w3.org/2000/svg">
<path fill-rule="evenodd" clip-rule="evenodd" d="M127.504 66.8982C126.42 66.8982 125.669 66.0565 125.669 65.0148C125.669 63.9732 126.42 63.1315 127.504 63.1315C128.586 63.1315 129.327 63.9503 129.327 65.0148C129.327 66.0794 128.588 66.8982 127.504 66.8982ZM127.504 61.7169C125.516 61.7169 124.026 63.1044 124.026 65.0148C124.026 66.9232 125.516 68.3107 127.504 68.3107C129.467 68.3107 130.97 66.9232 130.97 65.0148C130.97 63.1065 129.467 61.7169 127.504 61.7169ZM116.365 68.1482H117.983V65.6211H121.067V68.1482H122.685V61.8773H121.067V64.269H117.983V61.8773H116.365V68.1482ZM108.832 69.994V68.1482H113.954V69.994H115.394V66.7982H114.273V61.8773H109.151L108.884 64.0482C108.719 65.4857 108.464 66.2773 108.095 66.7982H107.395V69.994H108.834H108.832ZM112.653 66.7982H109.659C110.003 66.2648 110.181 65.5336 110.346 64.1336L110.46 63.2294H112.651V66.7982H112.653ZM103.514 66.8961C102.432 66.8961 101.681 66.0544 101.681 65.0128C101.681 63.9711 102.432 63.1294 103.514 63.1294C104.598 63.1294 105.337 63.9482 105.337 65.0128C105.337 66.0773 104.598 66.8961 103.514 66.8961ZM103.514 61.7148C101.526 61.7148 100.038 63.1023 100.038 65.0128C100.038 66.9211 101.528 68.3086 103.514 68.3086C105.477 68.3086 106.98 66.9211 106.98 65.0128C106.98 63.1044 105.477 61.7148 103.514 61.7148ZM94.6446 68.1461H96.2627V63.2273H99.6389V61.8753H94.6446V68.1461ZM91.2768 68.1461H92.9075V61.8753H91.2768V68.1461ZM87.4936 65.1107C88.2577 65.1107 88.6523 65.4336 88.6523 65.9648C88.6523 66.5711 88.2703 66.869 87.4936 66.869H85.6834V65.1086H87.4936V65.1107ZM85.6834 63.8211V61.8753H84.0652V68.1461H87.7483C89.5689 68.1461 90.3101 67.1044 90.3101 65.9648C90.3101 64.7503 89.571 63.8211 87.7358 63.8211H85.6854H85.6834ZM80.0231 65.544C80.6995 65.544 80.9918 65.8169 80.9918 66.2003C80.9918 66.6961 80.6745 66.944 80.0231 66.944H78.0876V65.544H80.0231ZM79.9604 63.0794C80.5074 63.0794 80.852 63.3023 80.852 63.7107C80.852 64.194 80.4824 64.3919 79.9604 64.3919H78.0876V63.0794H79.9604ZM76.4694 68.1482H80.2402C81.756 68.1482 82.6475 67.4294 82.6475 66.3378C82.6475 65.5086 82.0734 65.0628 81.4762 64.9003C81.9606 64.7628 82.4576 64.294 82.4576 63.5378C82.4576 62.4461 81.5284 61.8773 80.2151 61.8773H76.4694V68.1482ZM64.9609 68.1482H66.5665L69.8028 63.9357V68.1482H71.4209V61.8773H69.8028L66.5665 66.0794V61.8773H64.9609V68.1482Z" fill="#0F1722"/>
<path fill-rule="evenodd" clip-rule="evenodd" d="M55.8994 66.8922C54.8178 66.8922 54.0641 66.0505 54.0641 65.0089C54.0641 63.9672 54.8157 63.1255 55.8994 63.1255C56.983 63.1255 57.72 63.9443 57.72 65.0089C57.72 66.0734 56.9809 66.8922 55.8994 66.8922ZM55.8994 61.713C53.9117 61.713 52.423 63.1005 52.423 65.0089C52.423 66.9172 53.9138 68.3047 55.8994 68.3047C57.862 68.3047 59.3653 66.9172 59.3653 65.0089C59.3653 63.1005 57.862 61.713 55.8994 61.713ZM44.7604 68.1443H46.3785V65.6151H49.4624V68.1443H51.0805V61.8734H49.4624V64.2651H46.3785V61.8734H44.7604V68.1443ZM37.6866 68.1443H39.2421V65.4047L41.9167 68.1443H44.0443L40.8581 64.8839L43.8522 61.8714H41.7893L39.2421 64.4505V61.8714H37.6866V64.4609L35.1268 61.8714H33.0494L36.081 64.9214L32.922 68.1422H34.9995L37.6866 65.3922V68.1422V68.1443ZM29.8987 60.8693H31.5148V59.0234H29.8987V60.8693ZM27.2367 60.8693H28.8548V59.0234H27.2367V60.8693ZM29.3768 62.938C30.2057 62.938 30.8028 63.3839 31.0471 64.1776H27.6835C27.8881 63.3964 28.4978 62.938 29.3768 62.938ZM29.3768 61.7109C27.4037 61.7109 26.0006 63.0609 26.0006 65.0068C26.0006 66.8901 27.4141 68.3026 29.5041 68.3026C31.6943 68.3026 32.5754 66.9526 32.6756 66.3068H31.07C30.9552 66.4797 30.5355 66.988 29.5041 66.988C28.433 66.988 27.696 66.2443 27.6313 65.2651H32.7529V65.0922C32.7529 63.0484 31.3644 61.7089 29.3768 61.7089V61.7109ZM19.0291 69.988V68.1422H24.1507V69.988H25.5914V66.7922H24.4702V61.8714H19.3486L19.0813 64.0401C18.9143 65.4776 18.6596 66.2693 18.29 66.7922H17.5906V69.988H19.0312H19.0291ZM22.85 66.7922H19.8559C20.1983 66.2589 20.3779 65.5276 20.5429 64.1276L20.6577 63.2234H22.8479V66.7922H22.85ZM15.1519 65.0068C15.1519 66.0714 14.4504 66.8901 13.3939 66.8901C12.2977 66.8901 11.5858 66.0714 11.5858 65.0068C11.5858 63.9401 12.2998 63.1234 13.3939 63.1234C14.4504 63.1234 15.1519 63.9422 15.1519 65.0068ZM15.1373 68.1422H16.7554V61.8714H15.1248V62.813C14.9849 62.5526 14.3355 61.7339 12.9721 61.7339C11.3039 61.7339 9.92797 62.9734 9.92797 65.0047C9.92797 67.0484 11.3039 68.2755 12.9596 68.2755C14.3856 68.2755 15.012 67.3964 15.1373 67.1464V68.138V68.1422ZM6.67502 68.1422H8.39545V59.3422H6.67502V62.9734H1.7079V59.3422H0V68.1422H1.7079V64.4609H6.67502V68.1422Z" fill="#0F1722"/>
<path fill-rule="evenodd" clip-rule="evenodd" d="M132.406 62.2206H133.584V64.9375H134.402V62.2206H135.58V61.5039H132.406V62.2206ZM137.396 61.5039H136.167V64.9375H136.927V62.404L137.789 64.9375H138.336L139.202 62.379V64.9375H139.998V61.5039H138.816L138.108 63.5978L137.396 61.5039Z" fill="#0F1722"/>
<path fill-rule="evenodd" clip-rule="evenodd" d="M32.0483 40.8V29.4917C32.0483 23.2896 26.933 18.1833 20.7173 18.1833C14.4995 18.1833 9.39044 23.2896 9.39044 29.4917C9.39044 35.6958 14.4995 40.8 20.7173 40.8H32.0483ZM83.3689 38.1187C82.0014 35.4542 81.2852 32.5062 81.2852 29.4917C81.2852 19.0083 89.8769 10.4312 100.385 10.4312C112.134 10.4312 121.16 21.0437 119.229 32.6104L119.101 33.3708H89.7496C91.376 37.775 95.6312 40.8 100.383 40.8H121.565V0H129.332V48.5521H100.285C96.8505 48.5521 93.5245 47.6042 90.6098 45.8542C90.3592 45.6937 90.115 45.5271 89.8707 45.3562C86.7618 47.4229 83.062 48.5521 79.3184 48.5521H79.1869C68.6889 48.5521 60.1181 39.9583 60.1181 29.4917V18.2208C54.3033 18.6917 49.7036 23.6187 49.7036 29.4917V48.5521H41.9325V29.4917C41.9325 19.3375 50.0085 10.9312 60.1181 10.4542V0H67.8913V10.4312H78.1826V18.1833H67.8913V29.4917C67.8913 35.6979 73.0025 40.8 79.2224 40.8C80.9637 40.8 82.7196 40.3979 84.2876 39.6333C83.9598 39.1417 83.6529 38.6375 83.3648 38.1187H83.3689ZM111.023 25.6167C109.395 21.2083 105.144 18.1833 100.385 18.1833C95.6291 18.1833 91.376 21.2104 89.7496 25.6167H111.023ZM39.8174 48.5521H20.6797C10.1818 48.5521 1.61719 39.9583 1.61719 29.4917C1.61719 19.0062 10.2068 10.4312 20.7152 10.4312C31.2236 10.4312 39.8174 19.0062 39.8174 29.4917V48.5521Z" fill="url(#paint0_linear_31_1589)"/>
<defs>
<linearGradient id="paint0_linear_31_1589" x1="1.61719" y1="1.37845" x2="131.874" y2="39.9745" gradientUnits="userSpaceOnUse">
<stop offset="0.0154459" stop-color="#006C41"/>
<stop offset="0.505585" stop-color="#057D45"/>
<stop offset="1" stop-color="#14A167"/>
</linearGradient>
</defs>
</svg>
